<svg width="1480" height="500" viewBox="0 0 1480 500" xmlns="http://www.w3.org/2000/svg" xmlns:sketch="http://www.bohemiancoding.com/sketch/ns"><title>button_appstore_windows</title><desc>Created with Sketch.</desc><g sketch:type="MSLayerGroup" transform="translate(-1 -1190)" fill="none"><rect stroke-opacity=".2" stroke="#000" stroke-width="4" fill="#fff" sketch:type="MSShapeGroup" x="1" y="1190" width="1480" height="500" rx="60"/><path d="M288.008 1351.716l-208.008 41.635v151.421l208.008 41.626 41.577-15.13v-204.413l-41.577-15.139zm-117.124 161.731l-46.161-6.509v-38.352h46.161v44.861zm0-50.678h-46.161v-35.27l46.161-6.528v41.798zm63.981 59.549l-58.188-8.506v-45.226h58.188v53.731zm0-59.549h-58.188v-42.134l58.188-8.534v50.669zm-90.567-91.411v-34.781c-.249-21.552 10.866-28.157 31.401-32.976 30.911-7.258 32.878 12.701 32.878 25.402v29.472l7.567-1.526v-27.302c-.067-24.029-7.558-42.019-41.96-34.205-18.53 4.205-37.443 8.928-37.443 40.416v36.998l7.558-1.498zm77.849-55.949c.508 2.333.911 4.886 1.17 7.603 19.757-2.842 19.374 5.318 19.374 22.349v6.288l7.481-1.536v-4.752c0-26.448-4.124-33.533-28.025-29.952zm-21.973 5.165c.48 2.15.758 4.771.806 7.862-11.03 4.762-15.278 8.189-15.087 24.557v10.022l-7.558 1.526v-11.616c0-24.115 9.217-27.917 21.839-32.352z" fill-opacity=".5" fill="#000" sketch:type="MSShapeGroup"/><g fill-opacity=".5" fill="#000" sketch:type="MSShapeGroup"><path d="M1120.68 1397.349h-8.457v-30.451c0-5.939-.895-10.191-2.704-12.758-1.809-2.576-4.839-3.859-9.101-3.859-3.609 0-6.676 1.649-9.203 4.974-2.518 3.306-3.786 7.259-3.786 11.849v30.245h-8.457v-31.482c0-10.397-4-15.586-12.01-15.586-3.711 0-6.77 1.564-9.175 4.683-2.406 3.129-3.609 7.166-3.609 12.139v30.245h-8.457v-53.025h8.457v8.383h.214c3.739-6.454 9.185-9.676 16.337-9.676 3.431 0 6.527.965 9.278 2.904 2.751 1.93 4.653 4.637 5.725 8.121 3.916-7.353 9.753-11.025 17.521-11.025 11.618 0 17.427 7.212 17.427 21.647v32.671zm-96.704-26.405c0-6.66-1.473-11.774-4.41-15.333-2.937-3.559-7.133-5.33-12.597-5.33-5.436 0-9.735 1.817-12.896 5.461-3.161 3.644-4.737 8.777-4.737 15.399 0 6.36 1.585 11.315 4.765 14.893 3.18 3.578 7.469 5.358 12.868 5.358 5.492 0 9.707-1.761 12.625-5.274 2.919-3.522 4.383-8.58 4.383-15.174zm8.662-.318c0 8.43-2.387 15.202-7.143 20.326-4.765 5.124-11.143 7.7-19.153 7.7-7.805 0-14.033-2.501-18.686-7.493-4.653-4.983-6.984-11.559-6.984-19.708 0-8.758 2.387-15.689 7.161-20.776 4.783-5.096 11.367-7.643 19.749-7.643 7.833 0 13.968 2.454 18.407 7.372 4.429 4.927 6.648 11.662 6.648 20.223zm-55.798-17.703c-1.52-1.143-3.665-1.714-6.453-1.714-3.748 0-6.788 1.77-9.119 5.311-2.34 3.541-3.506 8.14-3.506 13.797v27.033h-8.457v-53.025h8.457v10.931h.205c1.166-3.662 2.975-6.557 5.408-8.683 2.443-2.117 5.24-3.185 8.411-3.185 2.201 0 3.879.253 5.054.721v8.814zm-34.491-26.62c-1.65-.937-3.515-1.396-5.623-1.396-5.902 0-8.858 3.747-8.858 11.24v8.177h12.364v7.194h-12.364v45.832h-8.457v-45.832h-8.97v-7.194h8.97v-8.599c0-5.377 1.576-9.732 4.746-13.048 3.161-3.316 7.18-4.974 12.057-4.974 2.583 0 4.625.309 6.136.937v7.662zm-76.237 47.068v-7.821c0-4.374-1.455-8.018-4.364-10.922-2.9-2.894-6.434-4.346-10.593-4.346-5.082 0-9.119 1.892-12.113 5.667-2.984 3.775-4.485 9.02-4.485 15.717 0 6.07 1.408 10.884 4.233 14.425 2.816 3.541 6.611 5.302 11.385 5.302 4.644 0 8.457-1.686 11.45-5.077 2.984-3.381 4.485-7.69 4.485-12.945zm8.448 23.979h-8.448v-9.011h-.214c-3.916 6.866-9.968 10.313-18.145 10.313-6.658 0-11.973-2.417-15.926-7.231-3.954-4.815-5.93-11.25-5.93-19.286 0-8.777 2.201-15.811 6.574-21.132 4.383-5.32 10.248-7.971 17.605-7.971 7.217 0 12.495 2.866 15.824 8.589h.214v-32.774h8.448v78.503zm-69.02-26.817l-12.784 1.808c-4.364.618-7.422 1.667-9.175 3.129-1.753 1.471-2.63 3.84-2.63 7.128 0 2.651.942 4.786 2.835 6.388 1.884 1.602 4.308 2.407 7.264 2.407 4.196 0 7.655-1.48 10.387-4.449s4.103-6.679 4.103-11.137v-5.274zm8.448 26.817h-8.448v-8.29h-.205c-3.683 6.388-9.091 9.592-16.243 9.592-5.082 0-9.157-1.396-12.215-4.178s-4.588-6.519-4.588-11.212c0-9.873 5.809-15.633 17.418-17.3l15.833-2.22c0-8.973-3.627-13.46-10.882-13.46-6.359 0-12.094 2.154-17.213 6.472v-8.702c1.539-1.18 4.187-2.304 7.935-3.391 3.748-1.087 7.077-1.63 10.005-1.63 12.402 0 18.602 6.604 18.602 19.83v34.489zm-59.127-26.405c0-6.66-1.473-11.774-4.41-15.333-2.937-3.559-7.133-5.33-12.597-5.33-5.436 0-9.735 1.817-12.886 5.461-3.161 3.644-4.746 8.777-4.746 15.399 0 6.36 1.594 11.315 4.765 14.893 3.18 3.578 7.469 5.358 12.868 5.358 5.492 0 9.707-1.761 12.625-5.274 2.919-3.522 4.383-8.58 4.383-15.174zm8.662-.318c0 8.43-2.387 15.202-7.143 20.326-4.765 5.124-11.143 7.7-19.153 7.7-7.795 0-14.024-2.501-18.677-7.493-4.662-4.983-6.993-11.559-6.993-19.708 0-8.758 2.387-15.689 7.171-20.776 4.774-5.096 11.357-7.643 19.74-7.643 7.842 0 13.968 2.454 18.407 7.372 4.429 4.927 6.648 11.662 6.648 20.223zm-65.057 26.723h-8.457v-78.503h8.457v78.503zm-24.384 0h-8.448v-30.245c0-11.221-4.093-16.823-12.271-16.823-4.159 0-7.646 1.583-10.443 4.73-2.797 3.157-4.205 7.194-4.205 12.093v30.245h-8.448v-53.025h8.448v8.795h.214c3.954-6.725 9.725-10.088 17.316-10.088 5.809 0 10.238 1.892 13.278 5.695 3.04 3.794 4.56 9.179 4.56 16.148v32.475zm-53.662-53.025l-15.824 53.025h-8.765l-10.882-37.964c-.373-1.302-.643-2.922-.821-4.861h-.205c-.103 1.208-.466 2.801-1.082 4.768l-11.805 38.057h-8.457l-15.926-53.025h8.868l10.872 39.874c.345 1.377.587 2.969.727 4.758h.41c.075-1.302.392-2.932.979-4.861l12.113-39.771h7.739l10.975 39.968c.345 1.358.587 2.941.727 4.768h.401c.075-1.658.354-3.232.83-4.768l10.779-39.968h8.345zm-88.247 26.62c0-6.66-1.473-11.774-4.41-15.333-2.937-3.559-7.143-5.33-12.597-5.33-5.436 0-9.735 1.817-12.896 5.461-3.161 3.644-4.746 8.777-4.746 15.399 0 6.36 1.594 11.315 4.774 14.893 3.18 3.578 7.469 5.358 12.868 5.358 5.492 0 9.707-1.761 12.625-5.274 2.919-3.522 4.383-8.58 4.383-15.174zm8.653-.318c0 8.43-2.378 15.202-7.133 20.326-4.765 5.124-11.143 7.7-19.153 7.7-7.805 0-14.033-2.501-18.686-7.493-4.653-4.983-6.984-11.559-6.984-19.708 0-8.758 2.387-15.689 7.161-20.776 4.774-5.096 11.367-7.643 19.749-7.643 7.833 0 13.968 2.454 18.407 7.372 4.429 4.927 6.639 11.662 6.639 20.223zm-70.465-11.128c0-19.024-10.052-28.541-30.155-28.541h-11.544v58.524h10.975c9.763 0 17.325-2.613 22.686-7.849 5.362-5.227 8.038-12.608 8.038-22.134zm9.073-.206c0 7.559-1.65 14.228-4.951 20.007-3.292 5.779-7.991 10.238-14.071 13.366-6.08 3.119-13.036 4.683-20.878 4.683h-19.535v-74.26h20.411c26.015 0 39.023 12.064 39.023 36.203z"/><path d="M1018.633 1534.486c0 6.838-2.62 12.392-7.87 16.664-5.24 4.262-12.215 6.407-20.906 6.407-7.432 0-13.931-1.602-19.507-4.786v-13.582c6.182 5.049 12.998 7.568 20.421 7.568 9.968 0 14.975-3.672 14.975-11.025 0-2.988-.97-5.414-2.919-7.297-1.949-1.873-6.378-4.402-13.287-7.596-6.956-2.979-11.879-6.173-14.742-9.592-2.872-3.428-4.299-7.971-4.299-13.629 0-6.519 2.611-11.971 7.833-16.354 5.212-4.356 11.851-6.538 19.889-6.538 6.191 0 11.786 1.227 16.812 3.709v12.711c-5.128-3.747-11.05-5.639-17.81-5.639-4.159 0-7.488 1.04-10.024 3.1-2.546 2.051-3.804 4.702-3.804 7.943 0 3.494.979 6.173 2.919 8.065 1.949 1.864 5.968 4.093 12.057 6.65 7.469 3.203 12.719 6.538 15.73 10.041 3.021 3.494 4.532 7.896 4.532 13.179zm-53.644-57.84l-23.572 78.981h-13.054l-16.187-56.529c-.569-1.958-.979-4.374-1.231-7.25h-.317c-.159 1.808-.681 4.159-1.604 7.091l-17.586 56.688h-12.588l-23.731-78.981h13.213l16.187 59.386c.513 2.061.877 4.44 1.082 7.1h.615c.093-1.948.578-4.365 1.455-7.259l18.052-59.226h11.516l16.346 59.545c.504 2.004.877 4.365 1.072 7.091h.606c.121-2.463.522-4.833 1.24-7.091l16.047-59.545h12.439zm-127.512 39.65c0-9.929-2.191-17.525-6.564-22.836-4.383-5.292-10.63-7.952-18.78-7.952-8.084 0-14.481 2.726-19.18 8.149-4.709 5.423-7.068 13.067-7.068 22.939 0 9.47 2.368 16.851 7.105 22.171 4.728 5.32 11.115 7.99 19.143 7.99 8.187 0 14.472-2.623 18.817-7.859 4.355-5.255 6.527-12.795 6.527-22.602zm12.905-.468c0 12.552-3.543 22.64-10.649 30.274-7.077 7.643-16.588 11.456-28.514 11.456-11.609 0-20.896-3.719-27.834-11.146-6.937-7.437-10.397-17.207-10.397-29.346 0-13.057 3.562-23.38 10.677-30.967 7.105-7.587 16.905-11.371 29.4-11.371 11.665 0 20.794 3.662 27.405 10.987 6.602 7.325 9.912 17.357 9.912 30.114zm-105.563 4.084v-11.643c0-6.529-2.163-11.943-6.49-16.28-4.327-4.318-9.576-6.482-15.768-6.482-7.571 0-13.586 2.819-18.043 8.458-4.448 5.62-6.686 13.423-6.686 23.408 0 9.048 2.107 16.195 6.303 21.478 4.196 5.274 9.847 7.906 16.971 7.906 6.9 0 12.588-2.52 17.036-7.568 4.457-5.03 6.676-11.456 6.676-19.277zm12.588 35.716h-12.588v-13.423h-.298c-5.846 10.238-14.845 15.352-27.022 15.352-9.94 0-17.847-3.587-23.731-10.762-5.884-7.175-8.821-16.748-8.821-28.719 0-13.057 3.254-23.558 9.791-31.472 6.518-7.915 15.255-11.877 26.211-11.877 10.742 0 18.612 4.262 23.572 12.795h.298v-48.829h12.588v116.935zm-87.371 0h-12.597v-45.045c0-16.71-6.089-25.075-18.257-25.075-6.201 0-11.385 2.36-15.553 7.063-4.187 4.702-6.266 10.706-6.266 18.012v45.045h-12.579v-78.981h12.579v13.114h.308c5.893-10.022 14.481-15.034 25.801-15.034 8.653 0 15.236 2.829 19.768 8.477 4.532 5.658 6.798 13.676 6.798 24.063v48.361zm-84.321 0h-12.597v-78.981h12.597v78.981zm2.154-104.955c0 2.37-.821 4.337-2.462 5.892-1.641 1.574-3.571 2.36-5.837 2.36-2.303 0-4.243-.759-5.828-2.276-1.594-1.527-2.387-3.522-2.387-5.976 0-2.211.793-4.131 2.35-5.761 1.557-1.602 3.515-2.426 5.865-2.426 2.359 0 4.327.806 5.921 2.407 1.576 1.583 2.378 3.513 2.378 5.779zm-24.98-5.648l-31.107 110.603h-15.115l-22.668-80.901c-.867-3.035-1.417-6.772-1.678-11.184h-.308c-.401 3.794-1.1 7.484-2.061 11.034l-22.817 81.051h-14.966l-32.17-110.603h14.117l23.423 84.844c.979 3.747 1.604 7.456 1.921 11.1h.308c.242-3.138 1.026-6.828 2.303-11.1l24.421-84.844h12.43l23.265 85.453c.877 3.194 1.492 6.613 1.837 10.257h.308c.252-2.67.951-6.182 2.079-10.556l22.5-85.154h13.977zm823.798 63.557c-.103-7.297-1.856-12.964-5.259-17.001-3.403-4.037-8.206-6.06-14.397-6.06-5.837 0-10.835 2.117-14.975 6.332-4.149 4.215-6.751 9.798-7.833 16.729h42.464zm12.896 10.734h-55.509c.205 8.889 2.546 15.68 7.021 20.392 4.485 4.702 10.686 7.053 18.621 7.053 8.905 0 17.017-2.866 24.337-8.636v11.802c-6.854 5.096-15.964 7.634-27.33 7.634-11.208 0-19.964-3.634-26.267-10.912-6.294-7.278-9.436-17.338-9.436-30.189 0-7.821 1.576-14.959 4.718-21.403 3.152-6.463 7.488-11.465 13.017-15.006 5.529-3.55 11.674-5.32 18.425-5.32 10.182 0 18.136 3.325 23.843 9.985 5.707 6.66 8.56 15.98 8.56 27.96v6.641zm-75.845-29.861c-2.257-1.695-5.455-2.538-9.604-2.538-5.576 0-10.108 2.632-13.586 7.896-3.487 5.283-5.222 12.13-5.222 20.56v40.259h-12.597v-78.972h12.597v16.27h.308c1.734-5.451 4.42-9.76 8.056-12.926 3.637-3.157 7.814-4.74 12.513-4.74 3.282 0 5.791.356 7.534 1.087v13.104zm-67.118 26.845c0-9.919-2.191-17.535-6.564-22.827-4.373-5.302-10.63-7.952-18.77-7.952-8.094 0-14.49 2.716-19.199 8.14-4.709 5.423-7.059 13.076-7.059 22.939 0 9.47 2.359 16.86 7.096 22.19 4.737 5.311 11.124 7.971 19.162 7.971 8.178 0 14.462-2.613 18.808-7.868 4.355-5.236 6.527-12.776 6.527-22.593zm12.905-.468c0 12.552-3.553 22.64-10.639 30.283-7.087 7.625-16.598 11.446-28.524 11.446-11.618 0-20.896-3.709-27.834-11.146-6.937-7.428-10.406-17.207-10.406-29.346 0-13.057 3.562-23.38 10.677-30.957 7.115-7.596 16.915-11.381 29.409-11.381 11.665 0 20.803 3.653 27.414 10.987 6.602 7.325 9.903 17.366 9.903 30.114zm-86.811 39.031c-3.021 1.695-6.965 2.548-11.823 2.548-13.716 0-20.579-7.765-20.579-23.295v-46.74h-13.511v-10.716h13.511v-19.286l12.588-4.084v23.37h19.815v10.716h-19.815v44.577c0 5.302.904 9.067 2.695 11.306 1.79 2.229 4.783 3.353 8.979 3.353 3.114 0 5.837-.843 8.14-2.548v10.8zm-52.031-27.145c0 9.301-3.273 16.598-9.828 21.9-6.546 5.292-15.46 7.943-26.715 7.943-4.093 0-8.718-.684-13.856-2.042-5.156-1.368-8.793-2.791-10.947-4.281v-15.352c3.124 2.838 7.226 5.199 12.327 7.1 5.091 1.901 9.837 2.857 14.239 2.857 14.136 0 21.185-5.526 21.185-16.589 0-4.627-1.501-8.599-4.522-11.915-3.021-3.316-9.213-7.681-18.584-13.076-9.054-5.142-15.404-10.022-19.041-14.65-3.637-4.637-5.455-10.257-5.455-16.888 0-8.749 3.254-15.858 9.753-21.328 6.508-5.48 14.901-8.215 25.185-8.215 9.884 0 17.101 1.302 21.651 3.934v14.49c-5.725-4.515-13.176-6.782-22.341-6.782-6.089 0-11.068 1.536-14.929 4.59-3.87 3.063-5.8 7.109-5.8 12.149 0 3.644.578 6.585 1.725 8.786 1.156 2.22 3.096 4.402 5.837 6.566 2.741 2.154 7.357 5.067 13.856 8.711 9.725 5.451 16.532 10.594 20.421 15.427 3.888 4.833 5.837 10.388 5.837 16.664z"/></g></g></svg>